<svg width="52" height="33" viewBox="0 0 52 33" fill="none" xmlns="http://www.w3.org/2000/svg">
<g filter="url(#filter0_d_2749_2666)">
<path d="M0 0V32H15.4595C16.8919 32 26.7567 31.7095 26.7567 22.7027C26.7567 17.0743 22.8851 15.1622 20.9189 14.5946C22.3649 13.9122 25.2432 12.2905 25.2432 7.94595C25.2432 5.52703 24.8986 0 15.027 0H0ZM35.2432 2.97297V5.89189H47.1892V2.97297H35.2432ZM7.02702 5.45946H13.6216C14.2432 5.45946 18.4324 5.12838 18.4324 9.13514C18.4324 12.5608 15.4054 12.9189 14.1622 12.9189H7.02702V5.45946ZM41.5135 8.54054C32.4797 8.54054 30.5946 16.3851 30.5946 19.7838C30.5946 29.8716 38.8648 31.027 41.5135 31.027C48.6554 31.027 50.6824 26.4054 51.5135 23.8378H46.3243C46.1216 24.5 44.6081 26.6486 41.7297 26.6486C36.9054 26.6486 36.4865 22.8784 36.4865 21.1892H51.8378C52.1486 15.3514 49.5946 8.54054 41.5135 8.54054ZM41.3513 12.9189C42.7905 12.9189 43.9527 13.3378 44.6486 14.1081C45.3446 14.8851 45.8581 16.0203 46 17.5135H36.4865C36.5135 17.1014 36.6081 16.6284 36.7567 16.1081C36.9054 15.5743 37.1351 15.0676 37.5135 14.5946C37.8919 14.1284 38.4189 13.723 39.027 13.4054C39.6486 13.0811 40.4189 12.9189 41.3513 12.9189ZM7.02702 17.7297H14.6486C16.1622 17.7297 19.7297 17.9662 19.7297 22.3243C19.7297 26.5473 15.2365 26.5405 14.5405 26.5405H7.02702V17.7297Z" fill="#FD6F00"/>
</g>
<defs>
<filter id="filter0_d_2749_2666" x="0" y="0" width="51.8628" height="33" filterUnits="userSpaceOnUse" color-interpolation-filters="sRGB">
<feFlood flood-opacity="0" result="BackgroundImageFix"/>
<feColorMatrix in="SourceAlpha" type="matrix" values="0 0 0 0 0 0 0 0 0 0 0 0 0 0 0 0 0 0 127 0" result="hardAlpha"/>
<feOffset dy="1"/>
<feComposite in2="hardAlpha" operator="out"/>
<feColorMatrix type="matrix" values="0 0 0 0 0 0 0 0 0 0 0 0 0 0 0 0 0 0 0.25 0"/>
<feBlend mode="normal" in2="BackgroundImageFix" result="effect1_dropShadow_2749_2666"/>
<feBlend mode="normal" in="SourceGraphic" in2="effect1_dropShadow_2749_2666" result="shape"/>
</filter>
</defs>
</svg>
