<svg width="49" height="31" viewBox="0 0 49 31" fill="none" xmlns="http://www.w3.org/2000/svg">
<g filter="url(#filter0_d_2749_2666)">
<path d="M0 0V30H14.4932C15.8361 30 25.0844 29.7276 25.0844 21.2838C25.0844 16.0072 21.4548 14.2145 19.6115 13.6824C20.9671 13.0427 23.6655 11.5224 23.6655 7.44932C23.6655 5.18159 23.3425 0 14.0878 0H0ZM33.0405 2.78716V5.52365H44.2398V2.78716H33.0405ZM6.58783 5.11824H12.7703C13.353 5.11824 17.2804 4.80786 17.2804 8.56419C17.2804 11.7758 14.4426 12.1115 13.277 12.1115H6.58783V5.11824ZM38.9189 8.00676C30.4497 8.00676 28.6824 15.3611 28.6824 18.5473C28.6824 28.0046 36.4358 29.0878 38.9189 29.0878C45.6144 29.0878 47.5148 24.7551 48.2939 22.348H43.429C43.239 22.9688 41.8201 24.9831 39.1216 24.9831C34.5988 24.9831 34.2061 21.4485 34.2061 19.8649H48.598C48.8893 14.3919 46.4949 8.00676 38.9189 8.00676ZM38.7669 12.1115C40.1161 12.1115 41.2056 12.5042 41.8581 13.2264C42.5105 13.9548 42.992 15.019 43.125 16.4189H34.2061C34.2314 16.0325 34.3201 15.5891 34.4594 15.1014C34.5988 14.6009 34.8142 14.1258 35.1689 13.6824C35.5236 13.2454 36.0177 12.8653 36.5878 12.5676C37.1706 12.2635 37.8927 12.1115 38.7669 12.1115ZM6.58783 16.6216H13.7331C15.152 16.6216 18.4966 16.8433 18.4966 20.9291C18.4966 24.8881 14.2842 24.8818 13.6318 24.8818H6.58783V16.6216Z" fill="#816D6D"/>
</g>
<defs>
<filter id="filter0_d_2749_2666" x="0" y="0" width="48.6211" height="31" filterUnits="userSpaceOnUse" color-interpolation-filters="sRGB">
<feFlood flood-opacity="0" result="BackgroundImageFix"/>
<feColorMatrix in="SourceAlpha" type="matrix" values="0 0 0 0 0 0 0 0 0 0 0 0 0 0 0 0 0 0 127 0" result="hardAlpha"/>
<feOffset dy="1"/>
<feComposite in2="hardAlpha" operator="out"/>
<feColorMatrix type="matrix" values="0 0 0 0 0 0 0 0 0 0 0 0 0 0 0 0 0 0 0.25 0"/>
<feBlend mode="normal" in2="BackgroundImageFix" result="effect1_dropShadow_2749_2666"/>
<feBlend mode="normal" in="SourceGraphic" in2="effect1_dropShadow_2749_2666" result="shape"/>
</filter>
</defs>
</svg>
