<svg width="44" height="28" viewBox="0 0 44 28" fill="none" xmlns="http://www.w3.org/2000/svg">
<g filter="url(#filter0_d_2714_2521)">
<path d="M0.54541 0.220703V26.5007H13.2415C14.4179 26.5007 22.5194 26.2621 22.5194 18.8653C22.5194 14.243 19.3398 12.6726 17.7251 12.2065C18.9125 11.6461 21.2764 10.3143 21.2764 6.74631C21.2764 4.75977 20.9934 0.220703 12.8864 0.220703H0.54541ZM29.4889 2.66226V5.05942H39.2995V2.66226H29.4889ZM6.31635 4.70428H11.7322C12.2427 4.70428 15.683 4.43238 15.683 7.72293C15.683 10.5363 13.1971 10.8304 12.1761 10.8304H6.31635V4.70428ZM34.6384 7.23462C27.2194 7.23462 25.6712 13.677 25.6712 16.4681C25.6712 24.7528 32.4632 25.7016 34.6384 25.7016C40.5036 25.7016 42.1683 21.9061 42.8509 19.7975H38.5892C38.4228 20.3413 37.1798 22.1059 34.8159 22.1059C30.854 22.1059 30.5099 19.0096 30.5099 17.6223H43.1172C43.3725 12.828 41.275 7.23462 34.6384 7.23462ZM34.5052 10.8304C35.6871 10.8304 36.6416 11.1744 37.2131 11.807C37.7846 12.4451 38.2064 13.3774 38.3229 14.6037H30.5099C30.5321 14.2652 30.6098 13.8768 30.7319 13.4495C30.854 13.0111 31.0426 12.5949 31.3534 12.2065C31.6641 11.8236 32.0969 11.4907 32.5963 11.2299C33.1068 10.9635 33.7394 10.8304 34.5052 10.8304ZM6.31635 14.7812H12.5756C13.8186 14.7812 16.7484 14.9755 16.7484 18.5546C16.7484 22.0227 13.0584 22.0171 12.4868 22.0171H6.31635V14.7812Z" fill="#FD6F00"/>
</g>
<defs>
<filter id="filter0_d_2714_2521" x="0.54541" y="0.220703" width="42.5923" height="27.2793" filterUnits="userSpaceOnUse" color-interpolation-filters="sRGB">
<feFlood flood-opacity="0" result="BackgroundImageFix"/>
<feColorMatrix in="SourceAlpha" type="matrix" values="0 0 0 0 0 0 0 0 0 0 0 0 0 0 0 0 0 0 127 0" result="hardAlpha"/>
<feOffset dy="1"/>
<feComposite in2="hardAlpha" operator="out"/>
<feColorMatrix type="matrix" values="0 0 0 0 0 0 0 0 0 0 0 0 0 0 0 0 0 0 0.25 0"/>
<feBlend mode="normal" in2="BackgroundImageFix" result="effect1_dropShadow_2714_2521"/>
<feBlend mode="normal" in="SourceGraphic" in2="effect1_dropShadow_2714_2521" result="shape"/>
</filter>
</defs>
</svg>
