<svg width="33" height="34" viewBox="0 0 33 34" fill="none" xmlns="http://www.w3.org/2000/svg">
<g filter="url(#filter0_d_2714_2522)">
<path d="M2.6497 7.908C4.0577 5.7 5.9777 3.86 8.2657 2.58C11.5777 3.668 15.1777 5.78 17.9457 8.932C13.3057 10.628 7.86569 10.644 2.6497 7.908ZM7.33769 29.86C3.0017 26.996 0.137695 22.084 0.137695 16.5C0.137695 14.484 0.505695 12.548 1.2097 10.772C4.58569 12.532 8.0417 13.316 11.3857 13.316C14.3937 13.316 17.2897 12.692 19.9297 11.604C20.5217 12.564 21.0337 13.62 21.4497 14.74C19.9297 15.284 18.4257 16.004 17.0017 16.884C12.0897 19.956 8.63369 24.596 7.33769 29.86ZM12.5857 0.9C13.7217 0.644 14.9217 0.5 16.1377 0.5C19.7857 0.5 23.1297 1.716 25.8177 3.764C24.4577 5.236 22.8097 6.532 20.9697 7.556C18.6017 4.612 15.5937 2.404 12.5857 0.9ZM22.5537 19.524C23.2897 26.98 19.9937 31.572 19.5937 32.116C19.5777 32.116 19.5777 32.132 19.5777 32.132C18.4737 32.372 17.3217 32.5 16.1377 32.5C14.0577 32.5 12.0897 32.1 10.2657 31.38C11.2097 26.612 14.2497 22.356 18.6817 19.604C19.8497 18.868 21.0657 18.276 22.3137 17.828C22.4097 18.372 22.4897 18.948 22.5537 19.524ZM32.1217 17.044C31.9297 22.708 28.8097 27.636 24.2017 30.324C25.2577 27.764 26.2177 23.988 25.7377 19.204C25.6577 18.436 25.5457 17.684 25.4017 16.964C27.7057 16.516 29.9937 16.532 32.1217 17.044ZM24.5537 13.876C24.0737 12.564 23.4977 11.332 22.8097 10.196C24.8417 9.028 26.6657 7.588 28.1537 5.94C30.0577 8.1 31.3857 10.772 31.8977 13.732C29.5297 13.316 27.0337 13.364 24.5537 13.876Z" fill="#FD6F00"/>
</g>
<defs>
<filter id="filter0_d_2714_2522" x="0.137695" y="0.5" width="31.9839" height="33" filterUnits="userSpaceOnUse" color-interpolation-filters="sRGB">
<feFlood flood-opacity="0" result="BackgroundImageFix"/>
<feColorMatrix in="SourceAlpha" type="matrix" values="0 0 0 0 0 0 0 0 0 0 0 0 0 0 0 0 0 0 127 0" result="hardAlpha"/>
<feOffset dy="1"/>
<feComposite in2="hardAlpha" operator="out"/>
<feColorMatrix type="matrix" values="0 0 0 0 0 0 0 0 0 0 0 0 0 0 0 0 0 0 0.25 0"/>
<feBlend mode="normal" in2="BackgroundImageFix" result="effect1_dropShadow_2714_2522"/>
<feBlend mode="normal" in="SourceGraphic" in2="effect1_dropShadow_2714_2522" result="shape"/>
</filter>
</defs>
</svg>
