<svg width="33" height="33" viewBox="0 0 33 33" fill="none" xmlns="http://www.w3.org/2000/svg">
<g filter="url(#filter0_d_2573_165)">
<path d="M3.08866 7.408C4.49666 5.2 6.41666 3.36 8.70466 2.08C12.0167 3.168 15.6167 5.28 18.3847 8.432C13.7447 10.128 8.30466 10.144 3.08866 7.408ZM7.77666 29.36C3.44066 26.496 0.57666 21.584 0.57666 16C0.57666 13.984 0.94466 12.048 1.64866 10.272C5.02466 12.032 8.48066 12.816 11.8247 12.816C14.8327 12.816 17.7287 12.192 20.3687 11.104C20.9607 12.064 21.4727 13.12 21.8887 14.24C20.3687 14.784 18.8647 15.504 17.4407 16.384C12.5287 19.456 9.07266 24.096 7.77666 29.36ZM13.0247 0.4C14.1607 0.144 15.3607 0 16.5767 0C20.2247 0 23.5687 1.216 26.2567 3.264C24.8967 4.736 23.2487 6.032 21.4087 7.056C19.0407 4.112 16.0327 1.904 13.0247 0.4ZM22.9927 19.024C23.7287 26.48 20.4327 31.072 20.0327 31.616C20.0167 31.616 20.0167 31.632 20.0167 31.632C18.9127 31.872 17.7607 32 16.5767 32C14.4967 32 12.5287 31.6 10.7047 30.88C11.6487 26.112 14.6887 21.856 19.1207 19.104C20.2887 18.368 21.5047 17.776 22.7527 17.328C22.8487 17.872 22.9287 18.448 22.9927 19.024ZM32.5607 16.544C32.3687 22.208 29.2487 27.136 24.6407 29.824C25.6967 27.264 26.6567 23.488 26.1767 18.704C26.0967 17.936 25.9847 17.184 25.8407 16.464C28.1447 16.016 30.4327 16.032 32.5607 16.544ZM24.9927 13.376C24.5127 12.064 23.9367 10.832 23.2487 9.696C25.2807 8.528 27.1047 7.088 28.5927 5.44C30.4967 7.6 31.8247 10.272 32.3367 13.232C29.9687 12.816 27.4727 12.864 24.9927 13.376Z" fill="#816D6D"/>
</g>
<defs>
<filter id="filter0_d_2573_165" x="0.57666" y="0" width="31.9839" height="33" filterUnits="userSpaceOnUse" color-interpolation-filters="sRGB">
<feFlood flood-opacity="0" result="BackgroundImageFix"/>
<feColorMatrix in="SourceAlpha" type="matrix" values="0 0 0 0 0 0 0 0 0 0 0 0 0 0 0 0 0 0 127 0" result="hardAlpha"/>
<feOffset dy="1"/>
<feComposite in2="hardAlpha" operator="out"/>
<feColorMatrix type="matrix" values="0 0 0 0 0 0 0 0 0 0 0 0 0 0 0 0 0 0 0.25 0"/>
<feBlend mode="normal" in2="BackgroundImageFix" result="effect1_dropShadow_2573_165"/>
<feBlend mode="normal" in="SourceGraphic" in2="effect1_dropShadow_2573_165" result="shape"/>
</filter>
</defs>
</svg>
