<svg width="31" height="34" viewBox="0 0 31 34" fill="none" xmlns="http://www.w3.org/2000/svg">
<g filter="url(#filter0_d_2714_2520)">
<path d="M3.84375 0.5C1.72157 0.5 0 2.21873 0 4.34091C0 6.46309 1.72018 8.22159 3.84091 8.22159C5.96164 8.22159 7.68466 6.46309 7.68466 4.34091C7.68466 2.22018 5.96593 0.5 3.84375 0.5ZM22.5966 10.6818C19.369 10.6818 17.5222 12.3698 16.6364 14.0483H16.5426V11.1335H10.1818V32.5H16.8097V21.9233C16.8097 19.1364 17.02 16.4432 20.4688 16.4432C23.868 16.4432 23.9176 19.6209 23.9176 22.0994V32.5H30.5369H30.5455V20.7642C30.5455 15.0217 29.3108 10.6818 22.5966 10.6818ZM0.528409 11.1335V32.5H7.16193V11.1335H0.528409Z" fill="#FD6F00"/>
</g>
<defs>
<filter id="filter0_d_2714_2520" x="0" y="0.5" width="30.5454" height="33" filterUnits="userSpaceOnUse" color-interpolation-filters="sRGB">
<feFlood flood-opacity="0" result="BackgroundImageFix"/>
<feColorMatrix in="SourceAlpha" type="matrix" values="0 0 0 0 0 0 0 0 0 0 0 0 0 0 0 0 0 0 127 0" result="hardAlpha"/>
<feOffset dy="1"/>
<feComposite in2="hardAlpha" operator="out"/>
<feColorMatrix type="matrix" values="0 0 0 0 0 0 0 0 0 0 0 0 0 0 0 0 0 0 0.25 0"/>
<feBlend mode="normal" in2="BackgroundImageFix" result="effect1_dropShadow_2714_2520"/>
<feBlend mode="normal" in="SourceGraphic" in2="effect1_dropShadow_2714_2520" result="shape"/>
</filter>
</defs>
</svg>
